<svg id="Layer_1" data-name="Layer 1" xmlns="http://www.w3.org/2000/svg" viewBox="0 0 170.26 85.66"><defs><style>.cls-1{fill:#ed2024;}</style></defs><title>Artboard 3</title><path class="cls-1" d="M87.92,16.76a1.39,1.39,0,0,1,.88.46,2.25,2.25,0,0,1,1-.47c3.19-.54,4.1,1.7,4.45,4.19.3,2.65.1,8.53-3.83,9.19-3.22.54-4.93-2.55-5.28-5.2C84.8,21.81,86.07,17.53,87.92,16.76Zm1.79,11.4c2.09-.35,1.94-6.41,1.79-7.75-.06-.64-.14-2.26-1-2.11-1.3.22-1.78,4.32-1.83,5.62,0,.09-.53,0-.67-.09a8.23,8.23,0,0,0,0,1.48C88.18,27,88.81,28.32,89.71,28.16Z"/><path class="cls-1" d="M93.68,17.15a12.46,12.46,0,0,1,2.83-1.23,7.91,7.91,0,0,1,.89-3.24c.48-.37,2.54.35,2.51.6l-.21,1.64.91-.23c.66-.15,1.21-.34,1.45-.07s.58.25,1,.39a3.38,3.38,0,0,1,.8,1c0,.17,0,.37-.39.43-1.15.22-2.64.62-4.08,1a35.08,35.08,0,0,0-.2,7.92c.11.66.45,1,.9.9,1.63-.28,2.89-2.51,2.81-3.71,0,0,1.42-.51,1.72,1.24.34,2-2.07,4.19-4.32,4.57-2,.35-3.85-1-4.27-3.51a29.58,29.58,0,0,1,.14-6.4l-1,.37C94.38,19.15,93.3,17.51,93.68,17.15Z"/><path class="cls-1" d="M91.71,51.2c1.79-.86,2.29-3.45,2.59-5.71a4.42,4.42,0,0,1-2.39,1.85c-3.39.57-5.13-1.3-5.86-4.64-1.06-5,.84-9.68,5.2-10.41,3-.51,5.62.47,6,2.11a3.66,3.66,0,0,1,0,.39c.25,0,1.92-.21,2,.44a84.52,84.52,0,0,1-.33,10.05c-.56,4.95-2.33,7.75-5.78,8.33a8.59,8.59,0,0,1-5.06-.51c-1.88-.93-.93-3.34,1.07-3.45A6.86,6.86,0,0,0,91.71,51.2Zm.7-6.5c1.18-.2,1.92-4.07,1.71-6.51a.78.78,0,0,1-.67-.25,7.5,7.5,0,0,0,0-2.5c-.08-.5-.39-1-.83-.89-1.63.28-2,5.62-1.64,8.14C91.21,44.19,91.83,44.8,92.41,44.7Z"/><path class="cls-1" d="M118.35,38.06c.23,1.35.7,2.84,1.7,2.67,2.37-.4,2.62-6.69,2.29-8.65-.16-.94-.49-1.54-1-1.45a1.36,1.36,0,0,0-.59.22c-1.41-1.13-1.17-3.05,1.43-3.48,3.12-.53,4.16,2,4.57,5s-.21,10.09-5.81,11c-4.59.77-6.59-2.87-7-6a11.48,11.48,0,0,1,0-3,4.25,4.25,0,0,1-.59.15,3.19,3.19,0,0,1-.53.06,10.75,10.75,0,0,1,.19,1.5c.1,3.11-.64,8.35-5.58,9.18-4.59.77-7-2.4-7.37-5.52-.43-3.68,1.19-7.56,3.89-8.55a4.91,4.91,0,0,1,1.9,1.13s.09-1.8,1-2c3.18-.53,4.82.44,5.54,2.19a1.73,1.73,0,0,0,.68,0,6.86,6.86,0,0,0,1.35-.39c.72-2.14,1.93-3.91,3.43-4.47a2,2,0,0,1,1.22.53c.11.49,1,2.7-1,4.19A23.31,23.31,0,0,0,118.35,38.06Zm-11.73,4.73c2.27-.38,2.28-6.37,2.18-7.83,0-.14,0-.34-.06-.53a4,4,0,0,1-2.46-1.1c-1.34,1.34-1.8,4.51-1.51,6.73C105,41.93,105.63,43,106.62,42.79Z"/><path class="cls-1" d="M137.45,37.71c-.36,1.23-1.33,3.38-3.54,3.75-3.62.61-5.79-2.2-6.23-4.83-.62-3.64.36-10.31,5.06-11.1a4.73,4.73,0,0,1,3.32.69c.06-1.82,0-4.52.05-5.6,0-1.31.19-2.27.79-2.38,1-.17,4.09-.17,4.1,1.07.07,3.77-.61,14.08-.2,16.51.13.8.44,1.12.91,1,1.11-.19,1.44-2.6,1.36-4.07,0,0,2.2-.93,2.56,1.22.33,1.93-1.69,5.11-4.92,5.66a2.59,2.59,0,0,1-3.14-2Zm-4.45,1c1.18-.2,2.35-6.27,2.22-7.36a.79.79,0,0,1-.71-.36,8.49,8.49,0,0,0,.32-2.5c0-.39-.14-.83-.48-.77-1.62.27-2.38,6.08-2,9.49C132.4,37.71,132.55,38.79,133,38.72Z"/><path class="cls-1" d="M103.45,49.39a3.07,3.07,0,0,1,3.48,2.77c.51,3-.41,5.81-2.09,6.1a1.9,1.9,0,0,1-1.88-.78,9.18,9.18,0,0,0,0,3.08c.19,1.14.78,1.75,1.8,1.58,2-.35,3-3.35,2.86-4.82a.53.53,0,0,1,.44-.31,1.24,1.24,0,0,1,1.54,1.05c.33,2-.66,5.49-4,6a4.59,4.59,0,0,1-5.4-3.87C99.56,56.1,100.63,49.86,103.45,49.39Zm.24,7.21c.78-.13,1-2.68.74-4.58-.16-.92-.32-1-.44-1s-.17.12-.29.46a20.91,20.91,0,0,0-.68,4.64S103.21,56.68,103.69,56.6Z"/><path class="cls-1" d="M113.16,53.72a22.35,22.35,0,0,0-1,8.05,2.53,2.53,0,0,1-1.29.6c-1.37.23-2-1-2.27-2.78-.84-5-.76-10.19.78-10.45.54-.09,1.58,0,1.58.58a38.84,38.84,0,0,0,0,6.56l.1,0a57,57,0,0,1,1.93-8c0-.2.28-.39.68-.45.83-.14,2.68.15,2.71.93.15,2.48-.7,6.08-.23,8.87.19,1.14.57,1.64,1.21,1.53s1.09-1.77,1.18-2.37c0,0,1.13-.24,1.3.78a3.67,3.67,0,0,1-2.92,3.66c-2.29.38-3.21-1.29-3.48-3.09a34.24,34.24,0,0,1,0-4.43Z"/><path class="cls-1" d="M120.63,46.79a1.39,1.39,0,0,1,.88.46,2.25,2.25,0,0,1,1-.47c3.2-.54,4.11,1.7,4.46,4.19.3,2.65.09,8.53-3.84,9.19-3.22.54-4.93-2.55-5.28-5.19C117.51,51.84,118.79,47.56,120.63,46.79Zm1.8,11.4c2.08-.35,1.94-6.41,1.78-7.75-.06-.64-.13-2.26-1-2.11-1.3.22-1.78,4.32-1.83,5.62,0,.09-.54,0-.67-.09a7.25,7.25,0,0,0,0,1.48C120.9,57,121.53,58.35,122.43,58.19Z"/><path class="cls-1" d="M133.77,54.29c-.2,1.15-.84,3.72-2.21,4a3.87,3.87,0,0,1-3.79-2.75c-.47-2.76,0-9.12,1.08-9.3a2.7,2.7,0,0,1,2.14.44c-.41,2.87-.71,6.74-.15,9.08l.33,0c1.21-2.35,1.9-7.79,1.9-10.23,0-.21.26-.36.64-.42.87-.15,2.25.38,2.3.78.07,1-.1,6,.13,7.62.08.72.46,1.72,1.2,1.6,1-.17,1.12-2.57,1.12-2.57.19,0,1.23-.23,1.39.71A3.9,3.9,0,0,1,137,57.06c-2.24.38-2.89-1.41-3-2.78Z"/><path class="cls-1" d="M142.51,59.8c1.27-.7,1.88-3.16,2-5.54-.4.65-1.07,1.76-1.92,1.9-2.39.41-3.9-1.19-4.46-4.07-.81-4.27.65-8.28,4-8.85,1.75-.3,3.44.2,3.71,1.66a1.39,1.39,0,0,1,.06.33c.16,0,1.36-.13,1.38.42a85.74,85.74,0,0,1-.07,9c-.34,4.22-1.66,6.49-3.77,6.84a5.47,5.47,0,0,1-4.11-.72c-1-.75-.44-2.31,1-2.35A6,6,0,0,0,142.51,59.8Zm.12-5.52c1.13-.19,1.8-3.76,1.59-6a.73.73,0,0,1-.62-.24,8.93,8.93,0,0,0,0-2.31c-.08-.48-.39-.86-.79-.8-1.56.27-1.91,5.17-1.54,7.49C141.48,53.82,142.06,54.38,142.63,54.28Z"/><path class="cls-1" d="M153.54,46.24a25.5,25.5,0,0,0-1.16,8.57,1.58,1.58,0,0,1-.88.42,2.35,2.35,0,0,1-2.77-1.54c-.38-2.24-1.28-15.72-.32-16.93.39-.46,2.72-.21,2.82.4a13.2,13.2,0,0,1-.13,3.38,80.53,80.53,0,0,0,.07,8.56h.22c.26-1.5,1.4-7.61,2.46-7.79,1.45-.24,3,.32,3.09.84.21,1.21-.5,6.12-.06,8.78.16.89.56,1.53,1.27,1.41s1.27-1.67,1.31-3c0,0,1.33-.37,1.52.77.28,1.68-1.3,3.68-3.51,4s-3.3-1.4-3.6-3.22a23.34,23.34,0,0,1-.06-4.69Z"/><path class="cls-1" d="M78.62,34.42c.24-7.76,1-22,2.61-22.31,1.93-.33,4.13-.18,4.66.4a106.93,106.93,0,0,0-2.54,30.25c0,.36-.71.47-1.1.54-1.27.21-3.65-.06-4.37-1C75.17,36.46,72,27.19,70.8,23.91l-.3-.15c-.69,3-.9,10.63.33,18.41.09.54.29.11.85.37.77.31-.66,3.79-.63,4.46,0,1.14-4.62-.17-5.07-.49-1.15-9.22-1.1-26.27,1.83-30.76a8.23,8.23,0,0,1,4.22.87c1.34,4.92,4.68,15.11,6.17,17.87Z"/><path class="cls-1" d="M9,20.83c5.49,2,14.15,5.84,19.38,8.44,3.62,1.81,9.33,6.23,12.88,8.92C40.13,40,39,41.72,37.93,43.52,31.25,54.71,27,67.74,22.05,79.8l9-5.26c4.58-11.28,8.66-23.38,14.63-34.06a38.3,38.3,0,0,1,5.89,4c10.71,9.12,32.31,27.07,32.31,27.07l-1.91-7.52S58.87,44.58,48.48,35.72c6.37-10.17,14.1-19.65,21.61-28.95,0,0-6.91,2.71-9,5.26C55.63,18.83,50,25.73,44.91,32.91c-5.73-4-12.88-9-18.63-12C20.94,18,19.2,16.76,13.06,15.1Z"/></svg>