<svg id="Layer_1" data-name="Layer 1" xmlns="http://www.w3.org/2000/svg" viewBox="0 0 234.77 84.29"><defs><style>.cls-1{fill:#982025;}.cls-2{fill:#ed2024;}.cls-3{fill:#231f20;}</style></defs><title>Artboard 4</title><path class="cls-1" d="M7.62,69.55s1.43,6.19,8.79,6L15.29,19.86l-8-7.12Z"/><path class="cls-2" d="M212,21.28s-14.11-8.81-48.9-9.61S127.4,29,88.73,25.38C56.07,22.28,27.18,8.1,19,3.77c0,0-.3-.18-.75-.4-1-.55-1.56-.86-1.56-.86a7.45,7.45,0,0,0-1.49-.24,2.86,2.86,0,0,0-.77,0h0C11.7,2.37,7.48,4,7.32,12.74c-.23,13,.3,56.81.3,56.81s2.49-9.67,8.47-9.79h0a33.88,33.88,0,0,1,5.08,1.68h0C29.11,65.1,58,77.51,90.8,80.62c38.67,3.66,39.56-14.52,74.35-13.71s48.9,9.61,48.9,9.61Z"/><path class="cls-3" d="M30.07,41.16a1.72,1.72,0,0,0-.14.75c0,.83.9,1.53,1.84,1.85s1.61.14,1.79-.38c.56-1.66-4.75-3.9-3.66-7.09.68-2,3.06-2.13,5.81-2.77a7.82,7.82,0,0,1,2.95,1.68l-1.52,3.46-1.24-.44a2,2,0,0,0-.08-1.07,3.64,3.64,0,0,0-1.73-1.28c-.71-.24-1.25,0-1.39.45-.51,1.51,4.83,3.69,3.67,7.12-.79,2.3-3.57,2.38-5.88,2.68A6.38,6.38,0,0,1,27.15,44l1.74-3.34Z"/><path class="cls-3" d="M44.66,43.82C44,46,41,47.62,38.36,49.27a3.34,3.34,0,0,1-1-1.36c.6-.48.55-.59.19-1.14-1.07-1.62-2-3.06-1.47-4.85.63-2.11,2.62-2.47,5.49-3.16C43.81,39.55,45.25,41.82,44.66,43.82Zm-5.61-2.15c-.25.82.83,3.64,1.4,3.81a1.1,1.1,0,0,0,1-.83c.32-1.07-.66-3.33-1.42-3.56A.91.91,0,0,0,39.05,41.67Z"/><path class="cls-3" d="M50.85,48.45l-5.2,2.28c-2.26-.95-2.1-3.87-1.15-7.5,1.38-5.21,2.61-5.16,5.66-6.76,2.11.56,3.41,2.11,3,3.57-.44,1.69-2.86,2.37-5.62,4-.42,2.18-.38,3.7.42,3.91a7.28,7.28,0,0,0,2.56-.46Zm-3-5.81c1.63-1.23,2.26-1.86,2.39-2.35a1.27,1.27,0,0,0-.65-1.42c-.47-.12-.86.45-1.47,2.74Z"/><path class="cls-3" d="M55.28,50.36,50.87,52a3,3,0,0,1-1.46-1.81,25.24,25.24,0,0,0,1.43-4c.45-1.87.18-2.14-.79-2.11V43l3.81-.86c.72.3.81.88,1.3,1.53-.3,1.1-1.33,3-1.7,4.58-.29,1.26,0,1.48,1.5,1.17Zm-.17-12.93a2.9,2.9,0,0,1,1.47,2.63L52.77,41l-.64-1.44Z"/><path class="cls-3" d="M64.65,52.29l-4,1.9a2.82,2.82,0,0,1-1-2.61l-2.94,1.7c-1.79-.92-2.27-3.46-1.89-5.31.44-2.17,2-3.28,4.66-4.16a15,15,0,0,1,1.43.48c.3-1.36.59-2.73-.34-2.92a5.41,5.41,0,0,0-1.1,0l-.08-1.16,4.76-.83c.54.24.68.84,1,1.34C65,41.34,64,44.42,63,49.06c-.35,1.76-.42,2.37.05,2.47a2.74,2.74,0,0,0,1.19-.23Zm-5.38-1.85c.32-.23.51-.57.79-1.95.23-1.13.25-1.64,0-1.93a1.86,1.86,0,0,0-.87-.46c-.51-.1-1,.12-1.18,1.12-.3,1.48.22,3.34.7,3.43A.89.89,0,0,0,59.27,50.44Z"/><path class="cls-3" d="M74.05,53.35l-4.53,2.36a2.1,2.1,0,0,1-1.11-2.23L65.54,55a2.9,2.9,0,0,1-1.84-3.32c.23-1.45,1.24-1.91,3-2.15,1.38-.2,2.28-.16,2.37-.69a.77.77,0,0,0-.32-.69,3.39,3.39,0,0,0-1.52-.67,5.4,5.4,0,0,0-2.28.32l-.35-1.3L68.32,45c2.06.33,2.81,1.37,4.06,2.5-.17,1.25-.63,2.51-.82,3.66s0,1.58.39,1.65a4.91,4.91,0,0,0,1.75-.44ZM67,51.41c-.09.56.13,1.09.43,1.14a1.09,1.09,0,0,0,.85-.39c.27-.3.38-.74.52-1.81C67.77,50.59,67.12,50.57,67,51.41Z"/><path class="cls-3" d="M73.17,56.4A2.12,2.12,0,0,1,72.64,55c.76-.59.94-.55,1.27-3.16s.25-3.22-.31-3.29a1.47,1.47,0,0,0-.57.09l-.14-1.16,3.55-1.29c.52.07.83.53,1.26,1-.11.55-.34,1.77-.46,2.77a17.64,17.64,0,0,1,2-3.34,3.79,3.79,0,0,1,2.09.85,30,30,0,0,1-.89,3.72l-1-.12c-.07-.64-.25-1.1-.67-1.15-.9-.11-1.65,1.68-1.81,2.93A14.45,14.45,0,0,0,77,55.35Z"/><path class="cls-3" d="M87.28,54.5l-5,2.85a3,3,0,0,1-1.69-1.62,24.09,24.09,0,0,0,.93-4.23c.18-1.81-.12-2.09-1.07-1.92l-.18-1.15,3.68-1.35c.76.18.92.74,1.5,1.34-.15,1.16-.93,2.93-1.09,4.6-.14,1.34.22,1.55,2.48.53ZM84.92,42.42s1.21-.1,1.72,2.54l-4.11,1.29L81.89,45Z"/><path class="cls-3" d="M90.42,50.9l0,.65c-.1,2.23-.12,2.63.3,3a.76.76,0,0,0,.51.25A5.67,5.67,0,0,0,93,54.17l.46.92-4.78,2.64a3.59,3.59,0,0,1-1.79-1.51c0-.72.22-3,.26-3.88.06-1.45-.19-1.77-1.36-1.86l.1-1.36,1.36.06.1-1.87,3.57-2.42.78.81c-.73.9-1,1.45-1.18,3.69a7.37,7.37,0,0,0,2.91-.26l.26,1.09-1.9.76Z"/><path class="cls-3" d="M104.87,54.73l-3.5,2.82a2.89,2.89,0,0,1-1.63-1l-.18-2.7c-.8,2.22-2,3.93-3,4-.72,0-1.24-.73-2-1.38-.08-1,0-2.59-.09-4-.13-1.8-.47-2.06-1.35-1.79l-.35-1.11,3.42-2c.52,0,.81.49,1.38.91,0,1-.15,3.15-.07,4.3.07.95.32,1.39.59,1.37.55,0,1.12-2,1-3.46,0-.52-.21-1.77-.23-2.06l2.85-1.53a2.55,2.55,0,0,1,.92,1c-.2.45-.33,1.16-.14,3.91.12,1.72.23,2.27.71,2.24a3.25,3.25,0,0,0,1-.43Z"/><path class="cls-3" d="M107.91,54.07c.58-.13.85-.37.78-.67-.25-1.13-4.7-.4-5.23-2.83-.34-1.53,1.17-2.78,2.49-4.16a7.93,7.93,0,0,1,3.44-.21,17.76,17.76,0,0,1,.38,2.92l-1.14.18c-.19-.79-1.41-.87-2.3-.67-.58.13-.75.31-.69.55.25,1.15,4.77.08,5.36,2.75.35,1.58-1,2.93-2.48,4.27a6.19,6.19,0,0,1-3.87-.12,3.62,3.62,0,0,1,.32-2.64C105.62,53.61,106.58,54.36,107.91,54.07Z"/><path class="cls-3" d="M122,48.8,119,53c-2.19.7-4.58-1.24-5.45-3.43-1-2.5.57-4,2.47-6.44,1.65-.66,3.84.72,4.29,2.23L117.08,49c.71.61,1.53,1,2.12.79a9.43,9.43,0,0,0,2-1.76Zm-5.71-.65c.94-1,1.22-1.45,1.08-1.8a1.11,1.11,0,0,0-1.25-.51c-.36.14-.64.68-.32,1.48A3.29,3.29,0,0,0,116.28,48.15Z"/><path class="cls-3" d="M124.27,43.31l.24.57c.89,2.08,1.06,2.44,1.58,2.61a.86.86,0,0,0,.59,0A5.66,5.66,0,0,0,128,45.15l.82.63-3.18,4.44a3.62,3.62,0,0,1-2.28-.58c-.29-.67-1.1-2.82-1.45-3.63s-.57-1.12-.92-1.25-.65,0-1.53.36L119,43.88l1.66-.67-.54-1.27a16,16,0,0,0,1.27-3.79l1.09-.09a25.21,25.21,0,0,0,1.25,3.85,7.34,7.34,0,0,0,2.51-1.49l.72.86-1.39,1.51Z"/><path class="cls-3" d="M128.81,39.52,131.54,37s.91-.05,1.53,1.66l1.3-2.55a3.76,3.76,0,0,1,4.24,2.79c.61,2-.17,4.45-1.77,6.62l-1.6.29c.75,2.13,1.16,2.62,1.29,3.07l-3.2,3-.93-.9c1-1.57,1.12-1.46.19-4.55l0-.09-1,.18a5.48,5.48,0,0,1-.58-2.94,3.46,3.46,0,0,1,.72-.09c-.73-2.26-1.26-3.32-1.84-3.15a1.41,1.41,0,0,0-.41.26Zm5.63,3.8a6.52,6.52,0,0,0,1.22-.15c.6-.18.78-.82.53-1.68-.42-1.38-1.59-2.16-2-2-.22.07-.33.39-.38.68a10.68,10.68,0,0,0,.66,3.15Z"/><path class="cls-3" d="M147.07,37.56c.36,2.22-1.62,5-3.28,7.66a3.38,3.38,0,0,1-1.54-.77c.33-.7.24-.77-.33-1.12-1.67-1-3.13-1.87-3.44-3.72-.36-2.16,1.27-3.36,3.55-5.24C144.43,34.09,146.73,35.5,147.07,37.56Zm-6,.51c.14.86,2.35,2.92,2.93,2.82a1.12,1.12,0,0,0,.59-1.21c-.18-1.1-2.05-2.71-2.84-2.58A.92.92,0,0,0,141.07,38.07Z"/><path class="cls-3" d="M157.43,40.93,154,43.76c-.75-.16-1.39-1.18-1.6-2.29L150,43.84c-2-.45-3.05-2.8-3.13-4.68-.11-2.22,1.18-3.68,3.5-5.18.34,0,1.21.09,1.5.11,0-1.38-.09-2.79-1-2.74a5.39,5.39,0,0,0-1.07.26l-.36-1.1,4.41-2c.58.1.86.65,1.3,1.06,0,.63-.2,3.86,0,8.59.08,1.8.17,2.41.65,2.39a2.77,2.77,0,0,0,1.09-.52Zm-5.66-.47c.26-.3.35-.69.28-2.09-.05-1.15-.15-1.65-.5-1.87a1.86,1.86,0,0,0-1-.22c-.52,0-.92.35-.87,1.37.07,1.51,1,3.18,1.52,3.16A1,1,0,0,0,151.77,40.46Z"/><path class="cls-3" d="M163.6,40.79l-3.72,3c-1.91-.22-3.84-2.5-3.75-5.25.07-2.41,1.62-3.14,4.09-4.92a6,6,0,0,1,3.12.8,6.15,6.15,0,0,1-.8,2.62,17.92,17.92,0,0,0-2.53-.74c-.58,0-.86.28-.88,1,0,1.37,1,3.38,2.1,3.41a4.86,4.86,0,0,0,1.88-.75Z"/><path class="cls-3" d="M172.58,41.91l-3.64,2.37a2,2,0,0,1-1.32-2.1l-2.55,1.72a2.74,2.74,0,0,1-2.31-3.08c.1-1.49,1-2,2.76-2.46,1.36-.32,2.26-.37,2.3-.93a.82.82,0,0,0-.39-.67,3.26,3.26,0,0,0-1.55-.56,4.64,4.64,0,0,0-1.72.37l-.45-1.26,3.21-1.56c1.86.13,2.72,1.07,4.1,2.06-.07,1.3-.4,2.63-.49,3.94-.07,1.09.06,1.55.49,1.58a2.86,2.86,0,0,0,1.09-.34ZM166,40.25c0,.56.21,1.08.53,1.1a1.15,1.15,0,0,0,.79-.47c.26-.32.32-.75.36-1.85C166.7,39.36,166.06,39.41,166,40.25Z"/><path class="cls-3" d="M174.6,42.42c.59.06.91-.08.94-.39.13-1.14-4.31-1.89-4-4.35.17-1.56,2-2.26,3.7-3.14a7.94,7.94,0,0,1,3.32.91,17,17,0,0,1-.58,2.89l-1.13-.2c.07-.81-1.06-1.28-2-1.38-.59-.06-.8.06-.83.31-.13,1.16,4.49,1.6,4.19,4.32-.18,1.61-1.9,2.45-3.72,3.24a6.17,6.17,0,0,1-3.62-1.36A3.63,3.63,0,0,1,172,40.88C172.57,41.25,173.24,42.27,174.6,42.42Z"/><path class="cls-3" d="M182.77,38.89l-.09.61c-.35,2.24-.4,2.63,0,3a.87.87,0,0,0,.5.32,5.61,5.61,0,0,0,1.83-.45l.36,1-5,2.1a3.68,3.68,0,0,1-1.63-1.7c.11-.73.55-3,.68-3.84s.11-1.26-.12-1.55-.55-.36-1.49-.51l.24-1.31,1.76.31.21-1.37A15.41,15.41,0,0,0,183,33l1,.5a24.64,24.64,0,0,0-1,3.93,7.4,7.4,0,0,0,2.92.05l.16,1.12-2,.55Z"/><path class="cls-3" d="M195.79,46.05l-4.16,1.7a2.84,2.84,0,0,1-1.26-1.46l.6-2.64c-1.41,1.9-3,3.2-4,3-.71-.15-1-1-1.55-1.89.21-1,.75-2.49,1.06-3.88.4-1.76.14-2.11-.78-2.1l0-1.16,3.84-.89c.5.15.64.7,1.06,1.27-.27,1-1,3-1.3,4.1-.21.93-.09,1.42.17,1.48.54.12,1.65-1.6,2-3,.12-.51.31-1.76.37-2l3.17-.65a2.52,2.52,0,0,1,.58,1.27c-.32.37-.65,1-1.26,3.7-.38,1.69-.43,2.25,0,2.36a3.52,3.52,0,0,0,1.14-.12Z"/><path class="cls-3" d="M197.69,47c.57.18.92.1,1-.19.35-1.1-3.87-2.69-3.13-5.06.47-1.5,2.41-1.83,4.24-2.37A7.84,7.84,0,0,1,202.89,41a17.3,17.3,0,0,1-1.12,2.72l-1.08-.41c.23-.78-.79-1.46-1.66-1.73-.57-.18-.8-.1-.88.14-.35,1.11,4.11,2.43,3.29,5-.49,1.54-2.34,2-4.29,2.46a6.18,6.18,0,0,1-3.29-2,3.6,3.6,0,0,1,1.6-2.12C195.93,45.5,196.39,46.62,197.69,47Z"/><path class="cls-1" d="M214.05,76.52s8.78,2.65,12.63-6.3l-5-59.7S218.1,24,212,21.28Z"/><path class="cls-2" d="M221.65,10.52C218,3.63,213.5,5.21,213.5,5.21L217.32,67s4.43-4.67,9.36,3.19Z"/></svg>