<svg id="Layer_1" data-name="Layer 1" xmlns="http://www.w3.org/2000/svg" viewBox="0 0 171.17 171.17"><defs><style>.cls-1{fill:#231f20;}.cls-2{fill:#ed2024;}</style></defs><title>Artboard 2</title><path class="cls-1" d="M23.11,49.07c-.21.61-.44,1.31-.71,2.2-.15.45-1.44.4-1.39.07a18.3,18.3,0,0,1,1.69-5.09c.29-.6.58-1,1.11-1.1a2.05,2.05,0,0,1,.7,0,2.39,2.39,0,0,1,.19,1.06c0,.38-.42.25-.57.47l-.5,1.13c1.8,1.65,5.63,4.85,7.37,6.2a11.28,11.28,0,0,1,1.22-2.55c.13-.19,1.69-.16,1.41.3a29.4,29.4,0,0,0-2.31,6c-.14.46-1.38.43-1.38.08s-.24-1,0-1.16.28-.06.3-.12c.13-.54.26-1,.4-1.49a1.16,1.16,0,0,1-.39.16C27.82,53.36,24.58,50.49,23.11,49.07Z"/><path class="cls-1" d="M31.11,46.57a19.29,19.29,0,0,0,4.12,5.11.87.87,0,0,1-.14.65c-.48.65-1.39.25-2.5-.56-3.08-2.27-5.72-4.79-5.06-5.68.12-.17.4-.48.73-.17A43,43,0,0,0,32,49.57l0-.06A41.93,41.93,0,0,1,28.56,44c-.09-.15,0-.28.1-.41.29-.39,1-.87,1.47-.48,1.4,1.2,2.71,3.36,4.64,4.78.74.54,1.24.62,1.54.21s-.2-1.33-.49-1.72a.44.44,0,0,1,.62,0A2.28,2.28,0,0,1,37,49.25c-.72,1-2,.5-3.14-.37a27.08,27.08,0,0,1-2.59-2.49Z"/><path class="cls-1" d="M39.47,44.41a2.25,2.25,0,0,1-.33,2.29c-.9,1-2.59.8-4.21-.68-2.4-2.21-3.77-5.5-2.31-7.1a1.56,1.56,0,0,1,2.18-.39l.13.14c.15-.08.64-.58.87-.22A22.18,22.18,0,0,0,39,42.78c.61.57,1.12.84,1.53.39.63-.69-.06-1.67-.77-2.49a.46.46,0,0,1,.71-.06c.71.65,1.71,2.57.78,3.57a1.35,1.35,0,0,1-1.75.15ZM38.12,46c.72-.78-1.79-4.41-2.27-4.85a1.74,1.74,0,0,1-.85.34,3.17,3.17,0,0,0-.91-1.67c-.12-.11-.44-.4-.67-.15-.89,1,1.73,4.48,3.12,5.76C37.36,46.19,37.8,46.36,38.12,46Z"/><path class="cls-1" d="M44,40c.25.65.53,2-.08,2.55-1.22,1.06-2.95-.11-4-1.28-1.66-1.91-3.54-5.75-1.7-7.34a1.59,1.59,0,0,1,1-.33c-.73-1.23-1.94-3-2.33-3.6-.2-.29-.08-.42,0-.46.47-.42,1.12-.67,1.31-.33.74,1.26,5.57,8.78,6.15,9.44.39.45.73.51,1,.27.45-.39,0-1.53-.65-2.42a.45.45,0,0,1,.71,0c.63.72,1.41,2.74.37,3.64A1.24,1.24,0,0,1,44,39.94Zm-1.24,1.84c.71-.61-1-4.79-1.57-5.41a.74.74,0,0,1-.65.09,8,8,0,0,0-.92-1.75c-.19-.22-.45-.44-.66-.27-1,.85,1.06,4.79,2.72,6.7C41.92,41.46,42.48,42.05,42.75,41.81Z"/><path class="cls-1" d="M42.92,29.77c.55-.4,1.51-.42,2.47.93,1.34,1.87,2,3.93.89,4.76a1.17,1.17,0,0,1-1.29,0,8.05,8.05,0,0,0,1.14,2.15c.49.69,1.12,1,1.87.48,1.13-.81.73-3.28,0-4.25,0,0-.11-.16.09-.31s.64,0,.93.4c.91,1.27,1.66,4,0,5.15-1.13.81-2.93.52-4.24-1.31C43.11,35.32,41.63,30.69,42.92,29.77Zm2.43,5c.51-.36-.24-2.33-1.2-3.68-.44-.61-.59-.61-.67-.56s-.09.15,0,.42a15.62,15.62,0,0,0,1.27,3.72S45.05,35,45.35,34.8Z"/><path class="cls-1" d="M48.38,26.64a1.32,1.32,0,0,1,2,.42l.11.22c.09-.05.8-.38,1,0,.53,1.33,1.27,3.53,1.56,4.57.6,1.48,1.29,3.14,1.94,4.64.06.13.34-.09.4,0a3.44,3.44,0,0,1,.34,1.65,2.15,2.15,0,0,1-1.17.37c-.33,0-1.24-2.25-1.8-3.82A1.59,1.59,0,0,1,52.17,36c-1.15.67-2.71,0-3.82-1.9C46.71,31.24,46.42,27.78,48.38,26.64Zm3,8.35c.92-.54-.36-4.65-.68-5.21a1.11,1.11,0,0,1-.69,0,3.91,3.91,0,0,0-.49-1.74c-.19-.33-.42-.57-.71-.4-1.14.66.28,4.7,1.23,6.33C50.62,34.94,51,35.23,51.4,35Z"/><path class="cls-1" d="M57.1,30.09c.13.85.4,2.82-.36,3.16a2.66,2.66,0,0,1-2.87-1.39c-.87-1.92-1.7-6.5-1.09-6.78a1.36,1.36,0,0,1,1,.09A26.72,26.72,0,0,0,55.59,32l.27,0A22.61,22.61,0,0,0,55,24c-.05-.15,0-.25.2-.32.47-.21,1.23-.14,1.36.14.27.61,1.08,4.52,1.64,5.76.17.37.7,1.2,1.26.95s.32-2,.32-2a.42.42,0,0,1,.63.21c.28.63.1,2.52-.83,2.94-1.25.56-2-.68-2.42-1.64Z"/><path class="cls-1" d="M64.12,29.27a2.27,2.27,0,0,1-1.42,1.84c-1.27.4-2.65-.59-3.32-2.69-1-3.1-.56-6.64,1.5-7.3a1.55,1.55,0,0,1,2.09.73A.88.88,0,0,1,63,22c.17,0,.85-.19.87.24a22.59,22.59,0,0,0,.66,5.36c.25.79.56,1.28,1.14,1.09.9-.28.78-1.47.57-2.54a.47.47,0,0,1,.65.3c.29.91.2,3.07-1.1,3.49a1.36,1.36,0,0,1-1.6-.74Zm-2,.72c1-.32.63-4.71.43-5.33a1.74,1.74,0,0,1-.91-.13,3.16,3.16,0,0,0,0-1.9c-.05-.15-.18-.57-.51-.46-1.25.4-.71,4.75-.13,6.55C61.4,29.78,61.71,30.14,62.15,30Z"/><path class="cls-1" d="M64.54,21.14a7.36,7.36,0,0,1,1.77-.95,6.91,6.91,0,0,1,.36-2.41c.25-.27,1.31.2,1.3.41l-.08,1.38a8,8,0,0,1,.81-.28c.38-.12.7-.26.85-.05s.27,0,.53.16a1.93,1.93,0,0,1,.49.5.23.23,0,0,1-.21.32,23.19,23.19,0,0,0-2.54.83,30.49,30.49,0,0,0,.21,6.6c.1.46.35.7.72.62a3.12,3.12,0,0,0,2.08-2.72s.6-.29.82.77-1.13,2.92-2.26,3.16-2.47-.79-2.85-2.6a29.27,29.27,0,0,1-.27-5.22l-.76.34C65.08,22.2,64.34,21.4,64.54,21.14Z"/><path class="cls-1" d="M73.06,18.4c.68-.08,1.53.36,1.73,2,.28,2.29-.09,4.44-1.5,4.61a1.17,1.17,0,0,1-1.13-.62,8,8,0,0,0,0,2.43c.11.84.51,1.42,1.42,1.31,1.37-.17,2.2-2.54,2.06-3.71,0,0,0-.2.23-.23s.56.29.62.79c.19,1.56-.45,4.3-2.43,4.55-1.38.16-2.82-1-3.1-3.18C70.57,23.37,71.48,18.59,73.06,18.4ZM72.78,24c.63-.07.91-2.16.71-3.8-.09-.75-.23-.83-.31-.82s-.16.1-.23.36a16.14,16.14,0,0,0-.67,3.87S72.42,24,72.78,24Z"/><path class="cls-1" d="M81.53,16.53a2.66,2.66,0,0,0-1.48,1.59.15.15,0,0,1-.11.05c-.17,0-1.11-.62-1.14-.89a3.38,3.38,0,0,1,3.06-2,2,2,0,0,1,.08-.28c.06-.22,0-.51.47-.49a1.49,1.49,0,0,1,.94.42,2.89,2.89,0,0,0-.11.35c2.24.31,4,2.08,4,4.09A3.66,3.66,0,0,1,83.59,23c.76.93,1.77,2.21,2.48,3.28l.17-.06c.45-.18.62,1,.7,1.34s.09.46,0,.59a1.92,1.92,0,0,1-.92.56c-1-1.39-3.25-4.65-4.25-5.75h0L81,26.68c-.05.32.15.42,0,1s-.31,1.05-.6,1a2.45,2.45,0,0,1-1.18-.48C79.72,25.33,80.87,19.43,81.53,16.53Zm.38,5.25c2.14.12,3.82-.78,3.91-3.1a2.35,2.35,0,0,0-2.47-2.44H83C82.71,17.65,82.28,19.74,81.91,21.78Z"/><path class="cls-1" d="M90.61,18.78c.68.1,1.38.75,1.14,2.39-.33,2.28-1.26,4.25-2.66,4a1.17,1.17,0,0,1-.93-.9,8.06,8.06,0,0,0-.67,2.34c-.12.83.11,1.5,1,1.64,1.37.2,2.8-1.87,3-3,0,0,0-.2.28-.16s.46.43.39.93c-.23,1.55-1.57,4-3.55,3.74-1.37-.2-2.46-1.66-2.14-3.88C86.9,22.91,89,18.55,90.61,18.78Zm-1.74,5.31c.62.1,1.45-1.84,1.69-3.48.11-.75,0-.85-.09-.87s-.17.05-.31.29a15.6,15.6,0,0,0-1.67,3.55S88.51,24,88.87,24.09Z"/><path class="cls-1" d="M93.69,22.61s2.89,2.2,2.18,5.25c-.47,2-1.72,2.51-2.93,2.23a3.36,3.36,0,0,1-2.18-3.71c.15-.65.89-1.93,1.53-1.78a1.3,1.3,0,0,1,.63.83,13.09,13.09,0,0,1-1.24,1.93,1.2,1.2,0,0,0,1,1.3c1.11.26,1.82-.42,2.1-1.61a3.55,3.55,0,0,0-2-3.88,1.83,1.83,0,0,1-.14-1.44c.24-.72,4.85-1.25,5.12-1.19a1,1,0,0,1,.4.91,2.51,2.51,0,0,1-2,1.25c-.18-.05-.12-.53-.3-.57a6.07,6.07,0,0,0-2.11.41Z"/><path class="cls-1" d="M94.89,33.58c-.12.23-.17.21-.3.19a3.37,3.37,0,0,1-1-.74c-.15-.18,1.48-3.24,3-6.24.78-2.09,2.43-5.54,2.9-5.38s.84.72.76.9l-.16.37a2.23,2.23,0,0,1,1.92-.55c1.79.6,1.52,2.36.87,4.11s-2.73,5.69-4.93,5a1.75,1.75,0,0,1-1.16-1.84l-.16.35C96,31,95.23,32.9,94.89,33.58Zm3.18-3.69c1.59.54,3.65-3.84,4-4.83.18-.49.69-1.67,0-1.89-1-.34-2.8,2.37-3.3,3.29,0,.06-.3-.18-.37-.3a8.07,8.07,0,0,0-.51,1.06C97.46,28.51,97.37,29.65,98.07,29.89Z"/><path class="cls-1" d="M107.16,23.94a.93.93,0,0,1,.24.6,1,1,0,0,1,.66.07c1.72.78,1.28,2.5.45,4.18s-3.28,5.39-5.4,4.42c-1.72-.78-1.31-3.33-.44-5.1C103.72,26,106,23.78,107.16,23.94Zm-3.82,8c1.52.69,4-3.45,4.5-4.4.23-.46.86-1.58.2-1.88-1-.43-3,2.08-3.61,2.94-.05.06-.35-.24-.41-.36a6.62,6.62,0,0,0-.6,1C102.8,30.46,102.67,31.62,103.34,31.93Z"/><path class="cls-1" d="M111.8,30.51a19.33,19.33,0,0,0-4.65,4.64.84.84,0,0,1-.66-.07c-.7-.41-.4-1.36.29-2.54,1.94-3.31,4.16-6.2,5.11-5.65.19.11.53.35.25.71a42.19,42.19,0,0,0-3.23,4.12l.06,0a45.67,45.67,0,0,1,5.12-4.06c.14-.1.28,0,.42.06.42.25,1,.95.64,1.42-1.05,1.51-3.05,3-4.26,5.12-.46.79-.49,1.3,0,1.55s1.3-.34,1.66-.67a.45.45,0,0,1,.1.62,2.31,2.31,0,0,1-2.85.84c-1-.62-.7-1.91,0-3.17a26.32,26.32,0,0,1,2.2-2.84Z"/><path class="cls-1" d="M115.86,32.27s1.83,3.13,0,5.68c-1.21,1.68-2.55,1.67-3.56.95a3.36,3.36,0,0,1-.6-4.26c.39-.54,1.57-1.45,2.09-1.07a1.28,1.28,0,0,1,.27,1,12.17,12.17,0,0,1-1.88,1.31,1.2,1.2,0,0,0,.43,1.59c.92.66,1.84.3,2.55-.69a3.56,3.56,0,0,0-.41-4.37,1.76,1.76,0,0,1,.42-1.39c.49-.57,5,.7,5.18.86a1,1,0,0,1,0,1,2.46,2.46,0,0,1-2.33.39c-.15-.11.09-.53-.06-.64a6.08,6.08,0,0,0-2.11-.43Z"/><path class="cls-1" d="M123.36,34.06c.52.44.77,1.37-.3,2.63-1.5,1.75-3.33,2.93-4.41,2a1.17,1.17,0,0,1-.31-1.25,8.43,8.43,0,0,0-1.81,1.63c-.54.64-.7,1.33,0,1.92,1.06.9,3.37-.09,4.14-1,0,0,.12-.15.32,0s.16.61-.17,1c-1,1.19-3.47,2.57-5,1.28-1-.9-1.21-2.71.25-4.42C118,35.59,122.15,33,123.36,34.06Zm-4.3,3.58c.48.4,2.21-.79,3.28-2.06.49-.57.45-.72.39-.78s-.17,0-.42.07A16,16,0,0,0,119,37S118.79,37.4,119.06,37.64Z"/><path class="cls-1" d="M123.94,39s1.29,3.39-.93,5.6c-1.47,1.46-2.79,1.22-3.67.34a3.37,3.37,0,0,1,.12-4.3c.47-.47,1.78-1.16,2.24-.7a1.33,1.33,0,0,1,.1,1,11.6,11.6,0,0,1-2.08,1,1.22,1.22,0,0,0,.16,1.64c.8.81,1.77.61,2.64-.25a3.57,3.57,0,0,0,.32-4.38,1.79,1.79,0,0,1,.64-1.3c.59-.48,4.78,1.52,5,1.72a1,1,0,0,1-.15,1,2.49,2.49,0,0,1-2.36,0c-.13-.13.18-.51,0-.64a6.07,6.07,0,0,0-2-.77Z"/><path class="cls-1" d="M130.73,43.45a7.37,7.37,0,0,1,1.59,1.23,6.66,6.66,0,0,1,2.34-.67c.36.12.36,1.27.17,1.35l-1.29.5c.24.24.44.45.59.62s.52.53.39.75.12.25.07.55a2.06,2.06,0,0,1-.25.66.24.24,0,0,1-.38-.06,23.69,23.69,0,0,0-1.81-2,30.5,30.5,0,0,0-5.92,2.91c-.37.28-.49.61-.27.91a3.09,3.09,0,0,0,3.33.77s.52.43-.35,1.07-3.13.17-3.81-.76-.3-2.57,1.19-3.66a28.88,28.88,0,0,1,4.65-2.4l-.63-.55C130,44.38,130.41,43.38,130.73,43.45Z"/><path class="cls-1" d="M136.15,49.54a1,1,0,0,1-.15.63,1,1,0,0,1,.51.43c1,1.61-.36,2.78-2,3.7s-5.75,2.59-7,.6c-1-1.61.8-3.48,2.52-4.46C132.14,49.31,135.27,48.74,136.15,49.54ZM128.48,54c.87,1.43,5.27-.58,6.2-1.1.45-.25,1.6-.82,1.23-1.44-.54-.89-3.67,0-4.64.39-.07,0-.16-.39-.13-.53a7.16,7.16,0,0,0-1.07.5C128.87,52.46,128.1,53.34,128.48,54Z"/><path class="cls-2" d="M88.45,59.8a1.32,1.32,0,0,1,.88.46,2.25,2.25,0,0,1,1-.47c3.2-.54,4.11,1.69,4.46,4.19.3,2.65.09,8.53-3.84,9.19-3.21.54-4.93-2.55-5.28-5.2C85.33,64.85,86.61,60.57,88.45,59.8Zm1.8,11.4c2.08-.35,1.94-6.41,1.79-7.75-.06-.64-.14-2.26-1-2.11-1.3.22-1.78,4.31-1.83,5.61,0,.1-.54,0-.67-.08a8.21,8.21,0,0,0,0,1.48C88.72,70.05,89.35,71.35,90.25,71.2Z"/><path class="cls-2" d="M94.21,60.19A12.61,12.61,0,0,1,97.05,59a7.91,7.91,0,0,1,.89-3.24c.47-.37,2.54.35,2.51.6L100.24,58l.91-.23c.65-.16,1.21-.35,1.45-.07s.57.24,1,.39a3.58,3.58,0,0,1,.81,1c0,.17,0,.36-.39.43-1.16.22-2.65.62-4.09,1a36.3,36.3,0,0,0-.2,7.92c.11.66.46,1,.91.89,1.63-.27,2.89-2.5,2.8-3.71,0,0,1.43-.5,1.72,1.25.35,2-2.07,4.19-4.31,4.57-2,.34-3.85-1-4.27-3.52a29,29,0,0,1,.14-6.4l-1.06.38C94.91,62.19,93.83,60.55,94.21,60.19Z"/><path class="cls-2" d="M92.25,94.24c1.78-.87,2.28-3.45,2.59-5.71a4.4,4.4,0,0,1-2.39,1.84c-3.4.58-5.13-1.29-5.86-4.63-1.07-5,.84-9.68,5.2-10.42,3-.5,5.62.48,6,2.12a3.66,3.66,0,0,1,0,.39c.24,0,1.92-.21,1.94.44a86.25,86.25,0,0,1-.32,10c-.56,5-2.33,7.75-5.78,8.33a8.55,8.55,0,0,1-5.06-.52c-1.89-.93-.93-3.33,1.07-3.44A6.79,6.79,0,0,0,92.25,94.24Zm.69-6.5c1.19-.2,1.93-4.08,1.72-6.51A.77.77,0,0,1,94,81a7.76,7.76,0,0,0,0-2.5c-.08-.49-.38-1-.82-.88-1.63.28-2,5.62-1.64,8.14C91.75,87.23,92.36,87.83,92.94,87.74Z"/><path class="cls-2" d="M118.88,81.1c.23,1.35.71,2.83,1.7,2.67,2.38-.4,2.63-6.69,2.3-8.65-.16-.94-.49-1.54-1-1.45a1.44,1.44,0,0,0-.58.21c-1.41-1.12-1.17-3,1.43-3.48,3.12-.52,4.16,2,4.56,5s-.2,10.09-5.81,11c-4.58.77-6.59-2.87-7-6a12,12,0,0,1,0-3,4.08,4.08,0,0,1-.6.16,3.07,3.07,0,0,1-.53.06,9.39,9.39,0,0,1,.2,1.5c.09,3.11-.64,8.34-5.59,9.18-4.58.77-7-2.41-7.37-5.52-.42-3.68,1.2-7.56,3.9-8.55a4.79,4.79,0,0,1,1.89,1.13s.1-1.81,1-2c3.17-.53,4.81.44,5.54,2.19a1.72,1.72,0,0,0,.68,0,6.31,6.31,0,0,0,1.35-.4c.72-2.13,1.93-3.9,3.42-4.46a2,2,0,0,1,1.23.53c.11.49,1,2.7-1,4.19A23.23,23.23,0,0,0,118.88,81.1Zm-11.72,4.73c2.26-.38,2.28-6.38,2.17-7.84,0-.13,0-.33-.06-.53a4,4,0,0,1-2.45-1.09c-1.34,1.33-1.8,4.51-1.51,6.73C105.51,85,106.16,86,107.16,85.83Z"/><path class="cls-2" d="M138,80.75c-.36,1.23-1.33,3.38-3.54,3.75-3.62.61-5.8-2.21-6.24-4.83-.61-3.64.37-10.31,5.06-11.1a4.71,4.71,0,0,1,3.33.69c.06-1.83,0-4.52.05-5.6,0-1.31.18-2.28.79-2.38,1-.17,4.09-.17,4.1,1.07.06,3.77-.62,14.07-.21,16.5.14.81.45,1.12.92,1,1.1-.18,1.43-2.59,1.36-4.06,0,0,2.2-.94,2.56,1.22.32,1.93-1.7,5.11-4.93,5.65a2.59,2.59,0,0,1-3.14-2Zm-4.46,1c1.19-.2,2.35-6.28,2.23-7.36A.8.8,0,0,1,135,74a8.49,8.49,0,0,0,.32-2.5c0-.4-.14-.83-.47-.77-1.63.27-2.38,6.08-2,9.48C132.94,80.75,133.09,81.83,133.53,81.76Z"/><path class="cls-2" d="M104,92.43a3.08,3.08,0,0,1,3.49,2.77c.5,3-.41,5.81-2.09,6.09a1.89,1.89,0,0,1-1.89-.77,9.36,9.36,0,0,0,0,3.08c.19,1.14.78,1.74,1.8,1.57,2-.34,3-3.35,2.86-4.81a.52.52,0,0,1,.43-.32,1.24,1.24,0,0,1,1.54,1.06c.34,2-.65,5.49-4,6.05a4.58,4.58,0,0,1-5.39-3.87C100.1,99.14,101.17,92.9,104,92.43Zm.24,7.21c.79-.13,1-2.68.74-4.58-.15-.92-.31-1-.43-1s-.18.13-.29.47a19.8,19.8,0,0,0-.68,4.64S103.75,99.72,104.22,99.64Z"/><path class="cls-2" d="M113.69,96.76a22.53,22.53,0,0,0-1,8,2.5,2.5,0,0,1-1.29.61c-1.37.23-2-1-2.27-2.78-.85-5-.77-10.19.77-10.45.55-.1,1.59,0,1.59.58a38.72,38.72,0,0,0,0,6.55h.09a56.69,56.69,0,0,1,1.94-8c0-.2.27-.39.68-.46.83-.13,2.68.16,2.71.94.15,2.48-.7,6.08-.23,8.87.19,1.14.56,1.63,1.2,1.52s1.09-1.76,1.19-2.36c0,0,1.12-.24,1.3.78a3.66,3.66,0,0,1-2.92,3.65c-2.29.39-3.21-1.28-3.49-3.08a36.23,36.23,0,0,1,0-4.43Z"/><path class="cls-2" d="M121.17,89.83a1.35,1.35,0,0,1,.88.46,2.25,2.25,0,0,1,1-.47c3.19-.54,4.1,1.69,4.45,4.19s.1,8.53-3.83,9.19c-3.22.54-4.93-2.55-5.28-5.2C118.05,94.88,119.32,90.6,121.17,89.83Zm1.79,11.4c2.09-.35,1.94-6.41,1.79-7.75-.06-.64-.14-2.26-1-2.11-1.3.22-1.78,4.32-1.83,5.61,0,.1-.53,0-.67-.08a8.23,8.23,0,0,0,0,1.48C121.43,100.08,122.06,101.38,123,101.23Z"/><path class="cls-2" d="M134.31,97.33c-.2,1.15-.84,3.72-2.21,4a3.88,3.88,0,0,1-3.8-2.75c-.46-2.77,0-9.12,1.09-9.31a2.74,2.74,0,0,1,2.14.45c-.42,2.86-.71,6.74-.15,9.07l.32.05c1.21-2.35,1.91-7.79,1.91-10.23,0-.22.25-.36.63-.42.88-.15,2.26.37,2.3.78.07,1-.09,6,.14,7.62.07.72.46,1.72,1.19,1.6,1-.17,1.13-2.58,1.13-2.58.19,0,1.23-.23,1.38.72a3.9,3.9,0,0,1-2.86,3.82c-2.25.37-2.89-1.42-3-2.78Z"/><path class="cls-2" d="M143,102.84c1.27-.7,1.88-3.16,2-5.55-.41.66-1.07,1.77-1.92,1.91-2.39.4-3.9-1.19-4.46-4.07-.82-4.27.65-8.29,4-8.86,1.76-.29,3.45.2,3.72,1.67a1.79,1.79,0,0,1,0,.33c.17,0,1.37-.13,1.39.42a85.73,85.73,0,0,1-.07,9c-.34,4.22-1.66,6.49-3.77,6.84a5.46,5.46,0,0,1-4.11-.72c-1-.75-.44-2.31,1-2.35A6,6,0,0,0,143,102.84Zm.12-5.52c1.14-.19,1.8-3.76,1.6-6a.74.74,0,0,1-.62-.23,9,9,0,0,0,0-2.32c-.08-.47-.39-.85-.79-.79-1.57.27-1.91,5.17-1.54,7.49C142,96.86,142.59,97.42,143.16,97.32Z"/><path class="cls-2" d="M154.07,89.28a25.76,25.76,0,0,0-1.16,8.57,1.48,1.48,0,0,1-.88.41,2.35,2.35,0,0,1-2.76-1.53C148.89,94.48,148,81,149,79.8c.39-.46,2.71-.22,2.82.4a13.17,13.17,0,0,1-.14,3.38,80.41,80.41,0,0,0,.08,8.56h.22c.26-1.51,1.4-7.61,2.46-7.79,1.44-.25,3,.32,3.09.84.2,1.21-.5,6.12-.06,8.77.15.9.55,1.54,1.26,1.42s1.28-1.67,1.32-3c0,0,1.32-.37,1.52.77.28,1.68-1.31,3.67-3.51,4s-3.3-1.39-3.61-3.21a25,25,0,0,1-.06-4.69Z"/><path class="cls-2" d="M79.16,77.45c.24-7.75,1-22,2.61-22.31,1.92-.32,4.12-.18,4.66.41a106.59,106.59,0,0,0-2.55,30.24c0,.36-.71.48-1.09.55-1.27.21-3.65-.06-4.37-1-2.72-5.79-5.94-15.06-7.08-18.35L71,66.8c-.69,3-.9,10.63.33,18.41.09.54.29.11.85.37.76.31-.67,3.79-.63,4.46,0,1.14-4.62-.17-5.07-.49-1.16-9.22-1.1-26.28,1.82-30.76a8.2,8.2,0,0,1,4.22.87c1.34,4.91,4.68,15.11,6.17,17.87Z"/><path class="cls-2" d="M9.56,63.87c5.49,2,14.15,5.84,19.38,8.44,3.63,1.81,9.34,6.23,12.89,8.92-1.16,1.76-2.29,3.53-3.36,5.32-6.68,11.2-11,24.23-15.88,36.28l9-5.25c4.58-11.28,8.66-23.39,14.63-34.06a38.21,38.21,0,0,1,5.88,4c10.71,9.11,32.32,27.07,32.32,27.07l-1.91-7.52S59.4,87.62,49,78.75c6.38-10.16,14.11-19.64,21.62-28.94,0,0-6.92,2.71-9,5.25C56.17,61.87,50.56,68.76,45.45,76c-5.73-4-12.88-9-18.64-12.05-5.33-2.83-7.07-4.1-13.21-5.76Z"/><path class="cls-1" d="M42.05,123.05c-.54-.36-1.16-.74-2-1.22-.41-.25-.05-1.49.26-1.36a18.53,18.53,0,0,1,4.54,2.84c.51.43.85.81.8,1.35,0,.11,0,.58-.15.68a2.33,2.33,0,0,1-1.06-.06c-.37-.11-.15-.47-.33-.67l-1-.76c-2,1.36-6.06,4.32-7.78,5.68a11.76,11.76,0,0,1,2.18,1.79c.16.18-.24,1.68-.62,1.3A29.53,29.53,0,0,0,31.68,129c-.41-.26-.09-1.45.26-1.37s1,0,1.12.3,0,.29,0,.31c.5.27.95.51,1.35.76a1.1,1.1,0,0,1-.06-.42A92.85,92.85,0,0,1,42.05,123.05Z"/><path class="cls-1" d="M43,130.84a19.15,19.15,0,0,0-5.29,3.9.88.88,0,0,1-.64-.17c-.63-.51-.19-1.4.66-2.47,2.41-3,5-5.51,5.89-4.82.17.13.47.42.15.74A40.28,40.28,0,0,0,40,131.61l.05,0a43.69,43.69,0,0,1,5.67-3.25c.15-.08.28,0,.41.12.37.3.82,1.08.41,1.49-1.26,1.34-3.47,2.57-5,4.43-.57.72-.67,1.21-.28,1.53s1.34-.15,1.75-.42a.46.46,0,0,1,0,.63,2.29,2.29,0,0,1-2.94.4c-1-.76-.4-2,.51-3.12a26,26,0,0,1,2.6-2.49Z"/><path class="cls-1" d="M46.15,139.14a2.28,2.28,0,0,1-2.32.08c-1.12-.72-1.23-2.41,0-4.26,1.75-2.75,4.75-4.68,6.57-3.51a1.56,1.56,0,0,1,.77,2.07l-.12.15c.11.14.69.53.38.82a22.5,22.5,0,0,0-3.71,3.93c-.44.7-.62,1.25-.11,1.58.79.5,1.63-.35,2.32-1.19a.46.46,0,0,1,.18.69c-.51.8-2.23,2.12-3.38,1.38a1.33,1.33,0,0,1-.45-1.69Zm-1.81-1c.9.57,4-2.53,4.38-3.08a1.75,1.75,0,0,1-.49-.78,3.1,3.1,0,0,0,1.49-1.18c.08-.14.31-.5,0-.69-1.11-.7-4.11,2.49-5.12,4.08C44,137.38,44,137.84,44.34,138.09Z"/><path class="cls-1" d="M52.68,142.51c-.5.47-1.65,1.27-2.38.92-1.45-.71-1-2.76-.37-4.15,1.11-2.28,3.91-5.5,6.09-4.43a1.66,1.66,0,0,1,.72.83c.84-1.15,2-3,2.4-3.56.18-.29.35-.22.41-.19.57.27,1.05.77.82,1.08-.88,1.17-5.91,8.55-6.29,9.34-.26.53-.19.87.15,1,.53.27,1.39-.62,2-1.53a.45.45,0,0,1,.26.66c-.42.86-2,2.36-3.2,1.76a1.23,1.23,0,0,1-.53-1.74Zm-2.18-.43c.84.41,4-2.83,4.36-3.55a.75.75,0,0,1-.32-.56,8.32,8.32,0,0,0,1.25-1.53c.12-.26.23-.59,0-.71-1.16-.57-4,2.83-5.1,5.11C50.5,141.18,50.18,141.92,50.5,142.08Z"/><path class="cls-1" d="M61.2,136.56c.64.24,1.2,1,.61,2.57-.81,2.16-2.13,3.89-3.46,3.39a1.16,1.16,0,0,1-.72-1.07,8.54,8.54,0,0,0-1.15,2.14c-.29.79-.21,1.5.65,1.82,1.29.49,3.13-1.23,3.55-2.34,0,0,.07-.18.3-.09s.37.52.19,1c-.55,1.46-2.39,3.6-4.26,2.9-1.3-.49-2.07-2.14-1.27-4.25C56.69,139.8,59.72,136,61.2,136.56Zm-2.83,4.82c.59.22,1.81-1.49,2.4-3,.26-.71.18-.84.09-.87s-.18,0-.37.21a16,16,0,0,0-2.38,3.12S58,141.25,58.37,141.38Z"/><path class="cls-1" d="M66.37,138.44a1.32,1.32,0,0,1,1.13,1.74c0,.1-.09.24-.09.24s.84.3.67.69c-.58,1.31-1.63,3.37-2.16,4.31-.65,1.47-1.34,3.12-2,4.63-.05.14.31.18.27.3a3.51,3.51,0,0,1-.94,1.41,2.21,2.21,0,0,1-1.09-.58c-.21-.25.75-2.47,1.47-4a1.54,1.54,0,0,1-1.29.45c-1.29-.35-1.9-1.93-1.32-4C61.92,140.46,64.18,137.84,66.37,138.44Zm-3.85,8c1,.27,3.07-3.51,3.24-4.14a1.1,1.1,0,0,1-.48-.49,3.84,3.84,0,0,0,.89-1.56c.1-.37.12-.7-.21-.79-1.27-.35-3.16,3.49-3.65,5.31C62,145.85,62.07,146.31,62.52,146.44Z"/><path class="cls-1" d="M70.81,146.44c-.36.78-1.22,2.58-2,2.45a2.7,2.7,0,0,1-1.64-2.75c.34-2.08,2.15-6.36,2.81-6.25a1.37,1.37,0,0,1,.8.62,25.88,25.88,0,0,0-2.25,6.71l.23.13a22.65,22.65,0,0,0,3.73-7.17c0-.16.17-.19.33-.16.52.08,1.12.56,1.07.86-.11.66-1.58,4.38-1.8,5.71-.06.41-.07,1.39.53,1.49.76.12,1.35-1.46,1.35-1.46a.41.41,0,0,1,.41.52c-.11.67-1.3,2.16-2.31,2-1.35-.22-1.34-1.69-1.12-2.7Z"/><path class="cls-1" d="M78.3,148.78a2.23,2.23,0,0,1-2,1.23c-1.33-.07-2.28-1.48-2.18-3.67.15-3.26,1.79-6.43,4-6.33,1.22.06,1.73.87,1.7,1.41a.91.91,0,0,1,0,.2c.16.06.86.11.74.52a21.91,21.91,0,0,0-1.25,5.26c0,.83.08,1.39.69,1.42.94,0,1.24-1.12,1.42-2.19a.45.45,0,0,1,.49.51c0,1-.87,3-2.23,2.89a1.36,1.36,0,0,1-1.25-1.25Zm-2.09,0c1.07,0,2.23-4.2,2.26-4.85a1.72,1.72,0,0,1-.81-.43,3.16,3.16,0,0,0,.7-1.77c0-.16,0-.6-.32-.61-1.31-.06-2.32,4.2-2.4,6.09C75.59,148.31,75.75,148.75,76.21,148.77Z"/><path class="cls-1" d="M80.87,141.17a7.11,7.11,0,0,1,1.89-.67,7.1,7.1,0,0,1,.72-2.33c.29-.23,1.26.4,1.22.6l-.28,1.35.84-.16c.39-.05.73-.14.85.08s.27,0,.5.24a2.2,2.2,0,0,1,.41.58c0,.12,0,.27-.26.28a22,22,0,0,0-2.64.44,31.15,31.15,0,0,0-.78,6.55c0,.47.24.74.62.72a3.09,3.09,0,0,0,2.46-2.37s.63-.2.69.88-1.55,2.72-2.7,2.78-2.32-1.15-2.43-3a28.88,28.88,0,0,1,.52-5.2l-.8.23C81.24,142.3,80.63,141.4,80.87,141.17Z"/><path class="cls-1" d="M89.07,139.2c.67-.09,1.53.34,1.75,2,.32,2.28,0,4.43-1.43,4.63a1.18,1.18,0,0,1-1.14-.61,8.37,8.37,0,0,0,0,2.43c.12.84.52,1.42,1.43,1.3,1.38-.19,2.18-2.57,2-3.75,0,0,0-.19.22-.23s.57.29.63.79c.22,1.55-.39,4.3-2.37,4.57-1.37.19-2.83-.9-3.13-3.13C86.64,144.2,87.5,139.42,89.07,139.2Zm-.21,5.59c.63-.09.89-2.17.67-3.81-.11-.75-.24-.83-.33-.81s-.15.09-.23.35a16.35,16.35,0,0,0-.61,3.88S88.51,144.84,88.86,144.79Z"/><path class="cls-1" d="M95.32,136.36a2.65,2.65,0,0,0-.85,2,.17.17,0,0,1-.09.09c-.16.05-1.26-.21-1.37-.46a3.37,3.37,0,0,1,2.18-3,1.79,1.79,0,0,1,0-.3c0-.22-.19-.47.28-.61a1.53,1.53,0,0,1,1,.07,2.42,2.42,0,0,0,0,.37c2.21-.47,4.51.57,5.11,2.5a3.65,3.65,0,0,1-2.15,4.64c1,.62,2.41,1.48,3.45,2.25l.13-.12c.37-.32.93.75,1.12,1s.24.39.18.56a2.11,2.11,0,0,1-.68.84c-1.39-1-4.64-3.27-6-4l0,0,.64,3.76c.07.32.28.35.38.88s.06,1.1-.21,1.18a2.39,2.39,0,0,1-1.28,0C96.61,145.25,95.69,139.31,95.32,136.36Zm2.15,4.81c2-.61,3.32-2,2.62-4.25a2.36,2.36,0,0,0-3.16-1.45,2.24,2.24,0,0,0-.31.11C96.81,137,97.12,139.12,97.47,141.17Z"/><path class="cls-1" d="M103.48,134.89c.62-.27,1.57-.1,2.23,1.42.92,2.12,1.18,4.28-.12,4.85a1.17,1.17,0,0,1-1.26-.27,8,8,0,0,0,.67,2.34c.34.77.89,1.22,1.73.85,1.27-.55,1.39-3.06.91-4.15,0,0-.07-.18.16-.29s.62.13.82.59c.63,1.43.8,4.25-1,5.05-1.27.55-3-.1-3.88-2.16C102.51,140.36,102,135.53,103.48,134.89Zm1.33,5.43c.58-.25.26-2.33-.41-3.85-.3-.69-.45-.72-.53-.69s-.12.13-.12.41a15.56,15.56,0,0,0,.47,3.9S104.48,140.47,104.81,140.32Z"/><path class="cls-1" d="M107.83,136.34s3.62-.28,5.11,2.47c1,1.82.4,3-.7,3.61a3.34,3.34,0,0,1-4.09-1.31c-.32-.59-.62-2.05-.05-2.36a1.35,1.35,0,0,1,1,.2,13.19,13.19,0,0,1,.35,2.27,1.21,1.21,0,0,0,1.62.31c1-.54,1.08-1.53.49-2.6a3.55,3.55,0,0,0-4.11-1.54,1.78,1.78,0,0,1-1.06-1c-.3-.7,2.8-4.16,3-4.29a1,1,0,0,1,.91.41,2.48,2.48,0,0,1-.68,2.27c-.16.09-.44-.31-.59-.23a6,6,0,0,0-1.31,1.71Z"/><path class="cls-1" d="M117.52,142.77c.11.23.06.26,0,.35a3.32,3.32,0,0,1-1.2.35c-.23,0-1.68-3.14-3.13-6.18-1.19-1.89-3-5.29-2.53-5.57s1.08-.23,1.18-.06l.19.35a2.22,2.22,0,0,1,.72-1.86c1.57-1.06,2.8.22,3.8,1.8s2.89,5.61,1,6.91a1.75,1.75,0,0,1-2.17-.18l.19.33C116.14,140.29,117.18,142.09,117.52,142.77Zm-1-4.77c1.38-.94-.85-5.23-1.41-6.13-.28-.44-.91-1.57-1.5-1.16-.87.58.2,3.67.62,4.62,0,.07-.32.13-.46.12a7.75,7.75,0,0,0,.54,1.05C115,137.65,115.9,138.41,116.51,138Z"/><path class="cls-1" d="M116.26,127.15a.94.94,0,0,1,.64,0,1.06,1.06,0,0,1,.35-.57c1.45-1.22,2.8-.07,4,1.4s3.45,5.29,1.66,6.78c-1.45,1.21-3.56-.25-4.8-1.81C116.64,131.15,115.61,128.14,116.26,127.15Zm5.56,6.9c1.28-1.07-1.38-5.12-2-6-.32-.41-1.06-1.46-1.61-1-.8.66.57,3.62,1.09,4.53,0,.06-.36.21-.5.21a7.75,7.75,0,0,0,.65,1C120.26,133.9,121.25,134.53,121.82,134.05Z"/><path class="cls-1" d="M123.64,125.33A19.07,19.07,0,0,0,127,131a.88.88,0,0,1-.23.63c-.57.58-1.41.06-2.39-.9-2.74-2.68-5-5.54-4.24-6.33.15-.15.47-.42.75-.07a42.09,42.09,0,0,0,3.21,4.14l0-.05a45.19,45.19,0,0,1-2.7-5.95c-.06-.17.05-.28.16-.4.34-.35,1.16-.71,1.53-.27,1.21,1.38,2.22,3.7,3.93,5.37.66.65,1.15.79,1.5.43s0-1.35-.25-1.78a.44.44,0,0,1,.62.06,2.29,2.29,0,0,1,.13,3c-.86.88-2,.22-3.07-.8a27.34,27.34,0,0,1-2.22-2.83Z"/><path class="cls-1" d="M125.93,121.71s3.23-1.65,5.67.32c1.61,1.3,1.52,2.64.74,3.61a3.36,3.36,0,0,1-4.29.35c-.51-.41-1.35-1.64-.94-2.15a1.31,1.31,0,0,1,1-.21,12.66,12.66,0,0,1,1.2,2,1.22,1.22,0,0,0,1.62-.34c.71-.89.4-1.82-.55-2.59a3.55,3.55,0,0,0-4.39.16,1.79,1.79,0,0,1-1.36-.5c-.54-.53,1-4.92,1.16-5.13a1,1,0,0,1,1,0,2.48,2.48,0,0,1,.25,2.35c-.11.14-.53-.12-.64,0a5.88,5.88,0,0,0-.54,2.08Z"/><path class="cls-1" d="M127.25,114.57c.39-.57,1.28-.92,2.65,0,1.91,1.3,3.28,3,2.48,4.17a1.16,1.16,0,0,1-1.21.44A8.31,8.31,0,0,0,133,120.8c.7.47,1.4.56,1.92-.21.77-1.14-.46-3.33-1.45-4,0,0-.16-.11,0-.32s.59-.23,1,0c1.3.88,2.94,3.16,1.82,4.82-.78,1.15-2.56,1.5-4.42.24C129.36,119.71,126.36,115.88,127.25,114.57Zm4,3.87c.35-.52-1-2.11-2.4-3-.63-.43-.77-.37-.82-.3s0,.17.11.41a16.57,16.57,0,0,0,2.48,3S131.08,118.74,131.28,118.44Z"/><path class="cls-1" d="M131.69,113.49s2.91-2.17,5.64-.64c1.81,1,1.94,2.35,1.34,3.43a3.37,3.37,0,0,1-4.17,1.07c-.58-.33-1.61-1.4-1.29-2a1.31,1.31,0,0,1,1-.38c.51.28,1.37,1.65,1.51,1.73a1.22,1.22,0,0,0,1.53-.61c.56-1,.1-1.86-1-2.46a3.55,3.55,0,0,0-4.29.89,1.82,1.82,0,0,1-1.43-.26c-.62-.43.15-5,.28-5.25a1.07,1.07,0,0,1,1-.13,2.5,2.5,0,0,1,.64,2.28c-.09.16-.54,0-.63.12a6.26,6.26,0,0,0-.19,2.15Z"/></svg>